<?xml version="1.0" encoding="UTF-8" standalone="no"?>
<!DOCTYPE svg PUBLIC "-//W3C//DTD SVG 1.1//EN" "http://www.w3.org/Graphics/SVG/1.1/DTD/svg11.dtd">
<svg width="100%" height="100%" viewBox="0 0 1024 1024" version="1.1" xmlns="http://www.w3.org/2000/svg" xmlns:xlink="http://www.w3.org/1999/xlink" xml:space="preserve" xmlns:serif="http://www.serif.com/" style="fill-rule:evenodd;clip-rule:evenodd;stroke-linejoin:round;stroke-miterlimit:2;">
    <g transform="matrix(1.11363,0,0,1.28066,-1.61914,-3.79327)">
        <rect x="1.454" y="2.962" width="919.516" height="799.587" style="fill:rgb(251,193,18);"/>
    </g>
    <g transform="matrix(1.77477,0,0,1.77477,-394.729,-296.472)">
        <path d="M725,493.5L725,423.4C725,411.6 715.4,402 703.6,402C691.8,402 682.2,411.6 682.2,423.4L682.2,436.7L650.1,436.7L650.1,347.7C650.1,271.3 587.6,209.1 510.9,209.1C434.2,209.1 371.7,271.3 371.7,347.7L371.7,436.7L339.6,436.7L339.6,423.4C339.6,411.6 330,402 318.2,402C306.4,402 296.8,411.6 296.8,423.4L296.8,493.5C296.8,588.5 362.6,668.7 452.1,693.7C452.1,693.7 491.3,701.973 510.9,701.973C530.5,701.973 569.7,693.7 569.7,693.7C659.3,668.7 725,588.5 725,493.5ZM510.8,252C563.3,252 606.1,294 607.1,345.9L542.9,345.9C537,345.9 532.2,350.7 532.2,356.6C532.2,362.5 537,367.3 542.9,367.3L607.2,367.3L607.2,407.3L542.9,407.3C537,407.3 532.2,412.1 532.2,418C532.2,423.9 537,428.7 542.9,428.7L607.2,428.7L607.2,468.7L542.9,468.7C537,468.7 532.2,473.5 532.2,479.4C532.2,485.3 537,490.1 542.9,490.1L607.1,490.1C606.1,542 563.3,584 510.8,584C458.3,584 415.5,542 414.5,490.1L478.7,490.1C484.6,490.1 489.4,485.3 489.4,479.4C489.4,473.5 484.6,468.7 478.7,468.7L414.4,468.7L414.4,428.7L478.7,428.7C484.6,428.7 489.4,423.9 489.4,418C489.4,412.1 484.6,407.3 478.7,407.3L414.4,407.3L414.4,367.3L478.7,367.3C484.6,367.3 489.4,362.5 489.4,356.6C489.4,350.7 484.6,345.9 478.7,345.9L414.5,345.9C415.5,294 458.3,252 510.8,252ZM339.4,493.5L339.4,458.1L371.5,458.1L371.5,488.3C371.5,564.7 434,626.9 510.7,626.9C587.4,626.9 649.9,564.7 649.9,488.3L649.9,458.1L682,458.1L682,493.5C682,584.8 605.1,659 510.6,659C416.1,659 339.4,584.8 339.4,493.5Z" style="fill-rule:nonzero;stroke:black;stroke-width:7.04px;"/>
    </g>
</svg>
